<?xml version="1.0" encoding="UTF-8"?>
<!DOCTYPE svg PUBLIC "-//W3C//DTD SVG 1.1//EN" "http://www.w3.org/Graphics/SVG/1.1/DTD/svg11.dtd">
<!-- Creator: CorelDRAW 2018 (64-Bit) -->
<svg xmlns="http://www.w3.org/2000/svg" xml:space="preserve" width="100%" height="100%" version="1.1" style="shape-rendering:geometricPrecision; text-rendering:geometricPrecision; image-rendering:optimizeQuality; fill-rule:evenodd; clip-rule:evenodd"
viewBox="0 0 4233.34 4233.34"
 xmlns:xlink="http://www.w3.org/1999/xlink">
 <defs>
  <style type="text/css">
   <![CDATA[
    .fil1 {fill:#211F1F}
    .fil0 {fill:#2D2D2D}
    .fil2 {fill:#FBBA00;fill-rule:nonzero}
   ]]>
  </style>
 </defs>
 <g id="Layer_x0020_1">
  <metadata id="CorelCorpID_0Corel-Layer"/>
  <rect class="fil0" width="4233.34" height="4233.34" rx="500" ry="500"/>
  <path class="fil1" d="M4233.34 3343.25c-258.02,91.33 -535.65,141.19 -824.96,141.19 -1365.26,0 -2472.02,-1106.76 -2472.02,-2472.02 0,-360.75 77.32,-703.41 216.22,-1012.42l2580.76 0c275,0 500,225 500,500l0 2843.25z"/>
  <path class="fil2" d="M1981.68 2189.99l490.41 -1378.64 468.74 0 488.43 1378.64 -413.59 0 -74.84 -238.31 -468.74 0 -76.81 238.31 -413.6 0zm725.1 -1061.56l-157.88 519.95 315.12 0 -157.24 -519.95z"/>
 </g>
</svg>
