<?xml version="1.0" encoding="UTF-8"?>
<!DOCTYPE svg PUBLIC "-//W3C//DTD SVG 1.1//EN" "http://www.w3.org/Graphics/SVG/1.1/DTD/svg11.dtd">
<!-- Creator: CorelDRAW 2018 (64-Bit) -->
<svg xmlns="http://www.w3.org/2000/svg" xml:space="preserve" width="100%" height="100%" version="1.1" style="shape-rendering:geometricPrecision; text-rendering:geometricPrecision; image-rendering:optimizeQuality; fill-rule:evenodd; clip-rule:evenodd"
viewBox="0 0 8500 8500"
 xmlns:xlink="http://www.w3.org/1999/xlink">
 <defs>
  <style type="text/css">
   <![CDATA[
    .fil0 {fill:#FBBA00;fill-rule:nonzero}
   ]]>
  </style>
 </defs>
 <g id="Layer_x0020_1">
  <metadata id="CorelCorpID_0Corel-Layer"/>
  <path class="fil0" d="M361.77 723.53c-199.79,0 -361.77,-161.98 -361.77,-361.77 0,-199.79 161.98,-361.77 361.77,-361.77l7776.44 0c199.79,0 361.78,161.98 361.78,361.77 0,199.79 -161.99,361.77 -361.78,361.77l-7776.44 0z"/>
  <path class="fil0" d="M361.77 4611.77c-199.79,0 -361.77,-161.98 -361.77,-361.77 0,-199.79 161.98,-361.76 361.77,-361.76l7776.44 0c199.79,0 361.78,161.97 361.78,361.76 0,199.79 -161.99,361.77 -361.78,361.77l-4894.02 0 -2882.42 0z"/>
  <path class="fil0" d="M3054.87 8500c-199.79,0 -361.76,-161.98 -361.76,-361.77 0,-199.78 161.97,-361.76 361.76,-361.76l5083.34 0c199.78,0 361.78,161.98 361.78,361.76 0,199.79 -162,361.77 -361.78,361.77l-5083.34 0z"/>
 </g>
</svg>
