<?xml version="1.0" encoding="UTF-8"?>
<!DOCTYPE svg PUBLIC "-//W3C//DTD SVG 1.1//EN" "http://www.w3.org/Graphics/SVG/1.1/DTD/svg11.dtd">
<!-- Creator: CorelDRAW 2018 (64-Bit) -->
<svg xmlns="http://www.w3.org/2000/svg" xml:space="preserve" width="100%" height="100%" version="1.1" style="shape-rendering:geometricPrecision; text-rendering:geometricPrecision; image-rendering:optimizeQuality; fill-rule:evenodd; clip-rule:evenodd"
viewBox="0 0 16355.07 17284.97"
 xmlns:xlink="http://www.w3.org/1999/xlink">
 <defs>
  <style type="text/css">
   <![CDATA[
    .fil0 {fill:#2D2D2D}
    .fil1 {fill:#FBBA00;fill-rule:nonzero}
   ]]>
  </style>
 </defs>
 <g id="Layer_x0020_1">
  <metadata id="CorelCorpID_0Corel-Layer"/>
  <path class="fil0" d="M16355.06 16584.58c-1279.94,453.05 -2657.16,700.39 -4092.31,700.39 -6772.52,0 -12262.74,-5490.22 -12262.74,-12262.74 0,-1789.54 383.56,-3489.35 1072.59,-5022.23l12802.16 0c1364.17,0 2480.31,1116.14 2480.31,2480.31l0 14104.27 -0.01 0z"/>
  <g id="_1421501767696">
   <path class="fil1" d="M6310.58 5783.02c-143.3,-143.3 -143.3,-375.67 0,-518.97 143.3,-143.3 375.67,-143.3 518.97,0l5577.83 5577.83c143.3,143.3 143.31,375.67 0.01,518.98 -143.31,143.3 -375.68,143.29 -518.98,-0.01l-5577.83 -5577.83z"/>
   <path class="fil1" d="M11888.41 5264.05c143.3,-143.3 375.67,-143.3 518.97,0 143.3,143.3 143.3,375.67 0,518.97l-5577.83 5577.83c-143.3,143.3 -375.67,143.31 -518.98,0.01 -143.3,-143.31 -143.29,-375.68 0.01,-518.98l5577.83 -5577.83z"/>
  </g>
 </g>
</svg>
