<svg xmlns="http://www.w3.org/2000/svg" width="100%" height="100%" viewBox="0 0 21000 20999.99">
 <defs>
  <style>
    .fil1 {fill:#211F1F}
    .fil0 {fill:#2D2D2D}
    .fil2 {fill:#FBBA00;fill-rule:nonzero}
  </style>
 </defs>
  <path class="fil0" d="M2480.31 0l16039.37 0c1369.6,0.01 2480.3,1110.71 2480.3,2480.32l0.01 16039.36c-0.01,1369.59 -1110.71,2480.29 -2480.32,2480.29l-16039.36 0.02c-1369.59,-0.02 -2480.29,-1110.72 -2480.29,-2480.33l-0.02 -16039.35c0.02,-1369.6 1110.72,-2480.3 2480.33,-2480.3z"/>
  <path class="fil1" d="M20999.99 16584.59c-1279.94,453.05 -2657.16,700.39 -4092.31,700.39 -6772.53,0 -12262.75,-5490.22 -12262.75,-12262.75 0,-1789.54 383.56,-3489.35 1072.59,-5022.23l12802.17 0c1364.17,0 2480.31,1116.14 2480.31,2480.31l0 14104.28 -0.01 0z"/>
  <path class="fil2" d="M13631.86 4372.05c0,-205.47 166.58,-372.05 372.04,-372.05 205.47,0 372.05,166.58 372.05,372.05l0 7004.64 1985.54 -2063.42c142.07,-147.68 377.01,-152.24 524.69,-10.17 147.68,142.07 152.24,377.01 10.17,524.69 -3588.75,3729.5 -2196.12,3729.5 -5784.87,0 -142.07,-147.68 -137.51,-382.61 10.17,-524.69 147.68,-142.07 382.61,-137.51 524.69,10.17l1985.54 2063.42 0 -7004.64 -0.02 0z"/>
</svg>