<?xml version="1.0" encoding="UTF-8"?>
<!DOCTYPE svg PUBLIC "-//W3C//DTD SVG 1.1//EN" "http://www.w3.org/Graphics/SVG/1.1/DTD/svg11.dtd">
<!-- Creator: CorelDRAW 2018 (64-Bit) -->
<svg xmlns="http://www.w3.org/2000/svg" xml:space="preserve" width="100%" height="100%" version="1.1" style="shape-rendering:geometricPrecision; text-rendering:geometricPrecision; image-rendering:optimizeQuality; fill-rule:evenodd; clip-rule:evenodd"
viewBox="0 0 13964.72 3133.23"
 xmlns:xlink="http://www.w3.org/1999/xlink">
 <defs>
  <style type="text/css">
   <![CDATA[
    .str0 {stroke:#FBBA00;stroke-width:200;stroke-miterlimit:22.9256}
    .fil1 {fill:#FBBA00}
    .fil0 {fill:#2D2D2D}
    .fil2 {fill:#FBBA00;fill-rule:nonzero}
   ]]>
  </style>
 </defs>
 <g id="Layer_x0020_1">
  <metadata id="CorelCorpID_0Corel-Layer"/>
  <path class="fil0 str0" d="M1566.61 100l10831.5 0c806.64,0 1466.61,659.99 1466.61,1466.61l0 0.01c0,806.62 -659.99,1466.61 -1466.61,1466.61l-10831.5 0c-806.62,0 -1466.61,-659.97 -1466.61,-1466.61l0 -0.01c0,-806.64 659.97,-1466.61 1466.61,-1466.61z"/>
  <g id="_2550961490368">
   <path class="fil1" d="M2348.31 704.41c176.04,0 318.76,142.72 318.76,318.78 0,176.05 -142.72,318.77 -318.76,318.77 -176.07,0 -318.79,-142.72 -318.79,-318.77 0,-176.06 142.72,-318.78 318.79,-318.78zm0 1086.87c176.04,0 318.76,142.72 318.76,318.78 0,176.04 -142.72,318.77 -318.76,318.77 -176.07,0 -318.79,-142.73 -318.79,-318.77 0,-176.06 142.72,-318.78 318.79,-318.78z"/>
   <polygon class="fil2" points="3554.37,1378.45 3587.85,1378.45 4025.31,773.6 4516.33,773.6 3942.73,1539.15 4567.66,2358.26 4083.34,2358.26 3625.8,1773.5 3554.37,1773.5 3554.37,2358.26 3121.38,2358.26 3121.38,773.6 3554.37,773.6 "/>
   <path id="1" class="fil2" d="M6569.69 773.6l397.28 0 549.05 1584.66 -441.92 0 -95.97 -310.24 -421.83 0 -93.74 310.24 -444.15 0 551.28 -1584.66zm339.25 984.28l-140.61 -491.02 -147.31 491.02 287.92 0z"/>
   <polygon id="2" class="fil2" points="9480.09,1378.45 9513.57,1378.45 9951.03,773.6 10442.05,773.6 9868.45,1539.15 10493.38,2358.26 10009.06,2358.26 9551.52,1773.5 9480.09,1773.5 9480.09,2358.26 9047.1,2358.26 9047.1,773.6 9480.09,773.6 "/>
   <path id="3" class="fil2" d="M10988.87 773.6l397.28 0 549.05 1584.66 -441.92 0 -95.97 -310.24 -421.83 0 -93.74 310.24 -444.15 0 551.28 -1584.66zm339.25 984.28l-140.61 -491.02 -147.31 491.02 287.92 0z"/>
   <path id="4" class="fil2" d="M4652.48 2358.26l0 -1584.66 727.6 0c77.37,0 148.79,16 214.26,47.99 65.47,31.99 121.64,73.65 168.51,124.99 46.87,51.33 83.7,110.1 110.48,176.32 26.78,66.21 40.18,132.8 40.18,199.75 0,92.26 -20.09,178.18 -60.27,257.79 -40.17,79.6 -95.97,144.7 -167.39,195.29l334.79 582.53 -491.02 0 -278.99 -486.56 -162.93 0 0 486.56 -435.22 0zm435.22 -865.98l274.52 0c26.79,0 51.71,-14.88 74.77,-44.64 23.07,-29.76 34.6,-71.42 34.6,-124.99 0,-55.05 -13.39,-97.08 -40.18,-126.1 -26.78,-29.01 -53.56,-43.52 -80.35,-43.52l-263.36 0 0 339.25z"/>
   <path id="5" class="fil2" d="M7647.7 2358.26l0 -1584.66 682.96 0c77.37,0 148.79,16 214.26,47.99 65.47,31.99 121.64,73.65 168.51,124.99 46.87,51.33 83.7,110.1 110.48,176.32 26.79,66.21 40.18,132.8 40.18,199.75 0,69.94 -12.65,138.01 -37.95,204.22 -25.29,66.22 -60.63,124.99 -106.01,176.32 -45.38,51.34 -100.44,92.26 -165.16,122.76 -64.73,30.5 -135.78,45.75 -213.15,45.75l-258.9 0 0 486.56 -435.22 0zm435.22 -865.98l229.89 0c26.78,0 51.7,-12.28 74.76,-36.83 23.07,-24.55 34.6,-68.81 34.6,-132.8 0,-65.47 -13.39,-110.1 -40.18,-133.91 -26.78,-23.81 -53.56,-35.71 -80.34,-35.71l-218.73 0 0 339.25z"/>
  </g>
 </g>
</svg>
