<?xml version="1.0" encoding="UTF-8"?>
<!DOCTYPE svg PUBLIC "-//W3C//DTD SVG 1.1//EN" "http://www.w3.org/Graphics/SVG/1.1/DTD/svg11.dtd">
<!-- Creator: CorelDRAW 2018 (64-Bit) -->
<svg xmlns="http://www.w3.org/2000/svg" xml:space="preserve" width="100%" height="100%" version="1.1" style="shape-rendering:geometricPrecision; text-rendering:geometricPrecision; image-rendering:optimizeQuality; fill-rule:evenodd; clip-rule:evenodd"
viewBox="0 0 4233.34 4233.34"
 xmlns:xlink="http://www.w3.org/1999/xlink">
 <defs>
  <style type="text/css">
   <![CDATA[
    .fil1 {fill:#211F1F}
    .fil0 {fill:#2D2D2D}
    .fil2 {fill:#FBBA00;fill-rule:nonzero}
   ]]>
  </style>
 </defs>
 <g id="Layer_x0020_1">
  <metadata id="CorelCorpID_0Corel-Layer"/>
  <rect class="fil0" width="4233.34" height="4233.34" rx="500" ry="500"/>
  <path class="fil1" d="M4233.34 3343.25c-258.02,91.33 -535.65,141.19 -824.96,141.19 -1365.26,0 -2472.02,-1106.76 -2472.02,-2472.02 0,-360.75 77.32,-703.41 216.22,-1012.42l2580.76 0c275,0 500,225 500,500l0 2843.25z"/>
  <polygon class="fil2" points="2689.46,1307.66 2462.97,2189.99 2085.16,2189.99 1600.66,811.35 2022.13,811.35 2266.35,1652.32 2483,811.35 2896.26,811.35 3113.23,1652.32 3357.45,811.35 3778.92,811.35 3294.42,2189.99 2915.95,2189.99 "/>
 </g>
</svg>
