<?xml version="1.0" encoding="utf-8"?>
<!-- Generator: Adobe Illustrator 17.0.0, SVG Export Plug-In . SVG Version: 6.00 Build 0)  -->
<!DOCTYPE svg PUBLIC "-//W3C//DTD SVG 1.1//EN" "http://www.w3.org/Graphics/SVG/1.1/DTD/svg11.dtd">
<svg version="1.1" id="Слой_1" xmlns="http://www.w3.org/2000/svg" xmlns:xlink="http://www.w3.org/1999/xlink" x="0px" y="0px"
	 width="144.973px" height="79.963px" viewBox="0 0.002 144.973 79.963" enable-background="new 0 0.002 144.973 79.963"
	 xml:space="preserve">
<g id="Layer_x0020_1">
	<rect x="0" y="0.002" fill="none" width="144.973" height="101.927"/>
	
		<linearGradient id="SVGID_1_" gradientUnits="userSpaceOnUse" x1="31132.8008" y1="-42673.5664" x2="31132.8008" y2="-37803.5664" gradientTransform="matrix(0.01 0 0 -0.01 -218.4558 -362.598)">
		<stop  offset="0" style="stop-color:#EBECEC"/>
		<stop  offset="0.3686" style="stop-color:#F4F5F5"/>
		<stop  offset="1" style="stop-color:#FEFEFE"/>
	</linearGradient>
	<path fill="url(#SVGID_1_)" d="M78.684,16.466L74.472,39.83l7.32,18.55l-4.041,6.919h-5.344l-6.377-16.064l-4.342,16.064H49.946
		l6.327-25.469l-4.402-23.363h11.692l2.467,17.387l2.567-17.387H78.684L78.684,16.466z M123.345,49.436V24.779h-3.54v0.311
		c0,7.952-0.912,16.064-2.687,24.346H123.345z M137.493,65.299h-11.962v-7.149h-10.779l-2.467,7.149h-4.883l-4.011-6.919v-8.894
		h2.316c1.193-3.409,2.206-7.901,2.968-13.446c0.792-5.565,1.173-11.642,1.173-18.199v-1.263h24.958v32.859h2.687V65.299
		L137.493,65.299z M100.643,26.634h-5.154l1.775-5.635h-9.375l1.825,5.635h-5.184l2.366,7.3v15.572
		c-1.474,2.547-2.547,4.703-3.991,7.22c5.104,3.51,14.209,3.51,19.262-0.17c-1.424-2.447-2.467-4.582-3.911-7.049V33.934
		L100.643,26.634L100.643,26.634z"/>
	
		<linearGradient id="SVGID_2_" gradientUnits="userSpaceOnUse" x1="31018.8008" y1="-38202.0039" x2="31018.8008" y2="-42282.7266" gradientTransform="matrix(0.01 0 0 -0.01 -218.4558 -362.598)">
		<stop  offset="0" style="stop-color:#78B833"/>
		<stop  offset="1" style="stop-color:#59911D"/>
	</linearGradient>
	<path fill="url(#SVGID_2_)" d="M107.401,65.299h-29.65l4.041-6.919c5.615,3.79,16.084,3.911,21.599,0L107.401,65.299z
		 M81.18,16.577h22.792l-2.868,8.232h-3.53l1.795-5.545H85.773l1.885,5.545h-3.479L81.18,16.577L81.18,16.577z"/>
	
		<linearGradient id="SVGID_3_" gradientUnits="userSpaceOnUse" x1="24660.8008" y1="-36858.6172" x2="24660.8008" y2="-43664.1445" gradientTransform="matrix(0.01 0 0 -0.01 -218.4558 -362.598)">
		<stop  offset="0" style="stop-color:#78B833"/>
		<stop  offset="1" style="stop-color:#59911D"/>
	</linearGradient>
	<path fill="url(#SVGID_3_)" d="M28.818,11.362c-0.531,0-1.013,0.05-1.474,0.13c-0.451,0.1-0.943,0.251-1.374,0.451v-0.02
		c-0.451,0.201-0.882,0.431-1.263,0.712c-0.411,0.251-0.762,0.562-1.093,0.882l0,0c-0.331,0.331-0.642,0.692-0.892,1.093l0,0
		c-0.281,0.381-0.511,0.822-0.682,1.253l0,0c-0.211,0.451-0.361,0.912-0.441,1.394l0,0c-0.1,0.461-0.15,0.943-0.15,1.474
		c0,0.481,0.05,0.963,0.15,1.444c0.08,0.491,0.231,0.943,0.411,1.374l0,0c0.201,0.461,0.411,0.872,0.682,1.273l0,0
		c0.261,0.381,0.541,0.742,0.872,1.073h0.02c0.311,0.331,0.662,0.632,1.073,0.882l0,0c0.381,0.261,0.812,0.481,1.243,0.662l0,0
		c0.451,0.201,0.912,0.331,1.394,0.431c0.481,0.08,0.993,0.13,1.524,0.13c0.491,0,0.973-0.05,1.404-0.13
		c0.481-0.1,0.943-0.251,1.374-0.431l0,0c0.451-0.201,0.882-0.431,1.263-0.682c0.381-0.281,0.742-0.562,1.093-0.892
		c0.331-0.331,0.612-0.712,0.892-1.093c0.281-0.411,0.511-0.812,0.712-1.273l0,0c0.201-0.431,0.331-0.882,0.431-1.314v-0.03
		c0.1-0.461,0.15-0.943,0.15-1.424c0-0.531-0.05-1.013-0.15-1.474c-0.1-0.481-0.231-0.943-0.431-1.374h-0.03
		c-0.17-0.451-0.431-0.892-0.682-1.273c-0.281-0.401-0.582-0.762-0.912-1.063v-0.03c-0.331-0.331-0.712-0.632-1.123-0.882
		c-0.381-0.281-0.812-0.511-1.243-0.712l0,0c-0.431-0.18-0.892-0.331-1.344-0.431C29.761,11.413,29.3,11.362,28.818,11.362
		L28.818,11.362z M28.818,36.982c-0.762,0-1.474,0.08-2.156,0.201c-0.662,0.15-1.344,0.361-1.985,0.642h0.03
		c-0.642,0.271-1.243,0.602-1.805,0.963c-0.562,0.381-1.073,0.812-1.554,1.273l0,0c-0.461,0.481-0.892,0.983-1.243,1.524
		c-0.381,0.551-0.712,1.163-0.993,1.825l0,0c-0.281,0.642-0.481,1.294-0.612,1.985c-0.12,0.662-0.201,1.374-0.201,2.106
		c0,0.762,0.08,1.474,0.201,2.166c0.13,0.682,0.331,1.344,0.612,1.955v0.02c0.281,0.612,0.612,1.223,0.993,1.785
		c0.351,0.562,0.792,1.063,1.243,1.544l0,0c0.481,0.461,0.993,0.872,1.554,1.253c0.562,0.381,1.163,0.712,1.805,0.983h-0.03
		c0.642,0.281,1.324,0.491,1.985,0.612c0.682,0.16,1.394,0.231,2.156,0.231c0.742,0,1.454-0.07,2.136-0.231
		c0.662-0.12,1.324-0.331,1.955-0.612v-0.02c0.662-0.281,1.253-0.612,1.805-0.993c0.562-0.381,1.093-0.812,1.554-1.294
		c0.481-0.461,0.892-0.993,1.273-1.524c0.381-0.592,0.712-1.193,0.983-1.835l0,0c0.281-0.632,0.491-1.263,0.612-1.925
		c0.13-0.662,0.211-1.374,0.211-2.116c0-0.732-0.08-1.424-0.211-2.086c-0.12-0.652-0.331-1.314-0.612-1.925
		c-0.271-0.662-0.602-1.243-0.983-1.805s-0.792-1.093-1.273-1.574c-0.481-0.481-0.993-0.892-1.554-1.273
		c-0.551-0.381-1.143-0.712-1.805-1.013l0,0c-0.632-0.281-1.294-0.491-1.955-0.642C30.272,37.062,29.56,36.982,28.818,36.982
		L28.818,36.982z M15.171,30.906c-1.424-1.604-2.517-3.299-3.279-5.134c-0.912-2.186-1.374-4.522-1.374-7.039
		c0-1.273,0.13-2.487,0.361-3.68c0.251-1.203,0.612-2.366,1.113-3.489h-0.02c0.481-1.093,1.063-2.136,1.725-3.128
		c0.662-0.963,1.404-1.875,2.236-2.687l0,0c0.812-0.812,1.705-1.554,2.697-2.216c0.963-0.662,2.005-1.213,3.098-1.705l0,0
		c1.123-0.481,2.266-0.832,3.429-1.093c1.193-0.221,2.417-0.351,3.66-0.351s2.467,0.13,3.66,0.381
		c1.173,0.231,2.316,0.612,3.429,1.093C37,2.338,38.043,2.9,39.016,3.561c0.963,0.662,1.875,1.394,2.687,2.236l0,0
		c0.842,0.842,1.574,1.755,2.236,2.717c0.642,0.943,1.193,1.985,1.705,3.098v0.03c0.461,1.093,0.842,2.236,1.073,3.429
		c0.251,1.193,0.351,2.417,0.351,3.66c0,4.623-1.554,8.664-4.653,12.153c2.467,2.126,4.372,4.472,5.665,7.059
		c1.504,2.898,2.246,6.097,2.246,9.556c0,1.474-0.16,2.898-0.441,4.302c-0.271,1.394-0.712,2.737-1.294,4.041
		c-0.562,1.294-1.223,2.517-1.985,3.66c-0.762,1.113-1.644,2.186-2.617,3.149c-0.963,0.993-2.025,1.875-3.149,2.637
		c-1.143,0.762-2.366,1.454-3.68,2.015c-1.304,0.582-2.647,0.993-4.041,1.294c-1.404,0.281-2.848,0.411-4.302,0.411
		c-1.474,0-2.898-0.13-4.322-0.411c-1.394-0.301-2.768-0.712-4.061-1.273l0,0c-1.294-0.582-2.517-1.243-3.64-2.005
		c-1.143-0.762-2.206-1.624-3.179-2.617l0,0c-0.983-0.993-1.855-2.036-2.617-3.179c-0.762-1.113-1.424-2.336-2.005-3.63l0,0
		c-0.562-1.324-0.993-2.677-1.243-4.071C7.47,50.428,7.32,49.005,7.32,47.501c0-3.479,0.732-6.658,2.206-9.576
		C10.829,35.358,12.705,32.991,15.171,30.906L15.171,30.906z"/>
</g>
</svg>
