<?xml version="1.0" encoding="UTF-8"?>
<!DOCTYPE svg PUBLIC "-//W3C//DTD SVG 1.1//EN" "http://www.w3.org/Graphics/SVG/1.1/DTD/svg11.dtd">
<!-- Creator: CorelDRAW 2018 (64-Bit) -->
<svg xmlns="http://www.w3.org/2000/svg" xml:space="preserve" width="100%" height="100%" version="1.1" style="shape-rendering:geometricPrecision; text-rendering:geometricPrecision; image-rendering:optimizeQuality; fill-rule:evenodd; clip-rule:evenodd"
viewBox="0 0 4233.34 4233.34"
 xmlns:xlink="http://www.w3.org/1999/xlink">
 <defs>
  <style type="text/css">
   <![CDATA[
    .fil1 {fill:#211F1F}
    .fil0 {fill:#2D2D2D}
    .fil2 {fill:#FBBA00;fill-rule:nonzero}
   ]]>
  </style>
 </defs>
 <g id="Layer_x0020_1">
  <metadata id="CorelCorpID_0Corel-Layer"/>
  <rect class="fil0" width="4233.34" height="4233.34" rx="500" ry="500"/>
  <path class="fil1" d="M4233.34 3343.25c-258.02,91.33 -535.65,141.19 -824.96,141.19 -1365.26,0 -2472.02,-1106.76 -2472.02,-2472.02 0,-360.75 77.32,-703.41 216.22,-1012.42l2580.76 0c275,0 500,225 500,500l0 2843.25z"/>
  <path class="fil2" d="M2041.67 1317.73c0,-41.42 33.58,-75 75,-75 41.42,0 75,33.58 75,75l0 1412.05 400.26 -415.96c28.64,-29.77 76,-30.69 105.77,-2.05 29.77,28.64 30.69,76 2.05,105.77 -723.45,751.82 -442.71,751.82 -1166.16,0 -28.64,-29.77 -27.72,-77.13 2.05,-105.77 29.77,-28.64 77.13,-27.72 105.77,2.05l400.26 415.96 0 -1412.05z"/>
 </g>
</svg>
