<?xml version="1.0" encoding="UTF-8"?>
<!DOCTYPE svg PUBLIC "-//W3C//DTD SVG 1.1//EN" "http://www.w3.org/Graphics/SVG/1.1/DTD/svg11.dtd">
<!-- Creator: CorelDRAW 2018 (64-Bit) -->
<svg xmlns="http://www.w3.org/2000/svg" xml:space="preserve" width="100%" height="100%" version="1.1" style="shape-rendering:geometricPrecision; text-rendering:geometricPrecision; image-rendering:optimizeQuality; fill-rule:evenodd; clip-rule:evenodd"
viewBox="0 0 3296.98 3484.44"
 xmlns:xlink="http://www.w3.org/1999/xlink">
 <defs>
  <style type="text/css">
   <![CDATA[
    .fil0 {fill:#211F1F}
    .fil1 {fill:#FBBA00}
   ]]>
  </style>
 </defs>
 <g id="Layer_x0020_1">
  <metadata id="CorelCorpID_0Corel-Layer"/>
  <path class="fil0" d="M3296.98 3343.25c-258.02,91.33 -535.65,141.19 -824.96,141.19 -1365.26,0 -2472.02,-1106.76 -2472.02,-2472.02 0,-360.75 77.32,-703.41 216.22,-1012.42l2580.76 0c275,0 500,225 500,500l0 2843.25z"/>
  <path class="fil1" d="M2156.33 800c188.13,0 340.65,152.52 340.65,340.67 0,188.14 -152.52,340.66 -340.65,340.66 -188.16,0 -340.68,-152.52 -340.68,-340.66 0,-188.15 152.52,-340.67 340.68,-340.67zm0 1161.51c188.13,0 340.65,152.52 340.65,340.66 0,188.14 -152.52,340.67 -340.65,340.67 -188.16,0 -340.68,-152.53 -340.68,-340.67 0,-188.14 152.52,-340.66 340.68,-340.66z"/>
 </g>
</svg>
